<svg xmlns="http://www.w3.org/2000/svg" xmlns:xlink="http://www.w3.org/1999/xlink" contentStyleType="text/css" data-diagram-type="CLASS" height="974px" preserveAspectRatio="none" style="width:1426px;height:974px;background:#FFFFFF;" version="1.1" viewBox="0 0 1426 974" width="1426px" zoomAndPan="magnify"><defs/><g><g class="entity" data-entity="bd1" data-source-line="3" data-uid="ent0002" id="entity_bd1"><rect fill="#F1F1F1" height="36.2969" rx="2.5" ry="2.5" style="stroke:#181818;stroke-width:0.5;" width="196.6152" x="7" y="392.23"/><text fill="#000000" font-family="sans-serif" font-size="14" lengthAdjust="spacing" textLength="182.6152" x="14" y="407.2251">BaseDatos1:BaseDeDatos</text><line style="stroke:#181818;stroke-width:0.5;" x1="8" x2="202.6152" y1="412.5269" y2="412.5269"/></g><g class="entity" data-entity="esq1" data-source-line="6" data-uid="ent0003" id="entity_esq1"><rect fill="#F1F1F1" height="36.2969" rx="2.5" ry="2.5" style="stroke:#181818;stroke-width:0.5;" width="157.083" x="295.77" y="392.23"/><text fill="#000000" font-family="sans-serif" font-size="14" lengthAdjust="spacing" textLength="143.083" x="302.77" y="407.2251">Esquema1:Esquema</text><line style="stroke:#181818;stroke-width:0.5;" x1="296.77" x2="451.853" y1="412.5269" y2="412.5269"/></g><g class="entity" data-entity="tab1" data-source-line="9" data-uid="ent0004" id="entity_tab1"><rect fill="#F1F1F1" height="44.5938" rx="2.5" ry="2.5" style="stroke:#181818;stroke-width:0.5;" width="167.1758" x="594.72" y="517.82"/><text fill="#000000" font-family="sans-serif" font-size="14" lengthAdjust="spacing" textLength="90.5967" x="633.0096" y="532.8151">Tabla1:Tabla</text><line style="stroke:#181818;stroke-width:0.5;" x1="595.72" x2="760.8958" y1="538.1169" y2="538.1169"/><text fill="#000000" font-family="sans-serif" font-size="14" lengthAdjust="spacing" textLength="155.1758" x="600.72" y="555.112">Nombre: "Empleados"</text></g><g class="entity" data-entity="tab2" data-source-line="13" data-uid="ent0005" id="entity_tab2"><rect fill="#F1F1F1" height="44.5938" rx="2.5" ry="2.5" style="stroke:#181818;stroke-width:0.5;" width="199.1338" x="826.74" y="15.15"/><text fill="#000000" font-family="sans-serif" font-size="14" lengthAdjust="spacing" textLength="90.5967" x="881.0086" y="30.1451">Tabla2:Tabla</text><line style="stroke:#181818;stroke-width:0.5;" x1="827.74" x2="1024.8738" y1="35.4469" y2="35.4469"/><text fill="#000000" font-family="sans-serif" font-size="14" lengthAdjust="spacing" textLength="187.1338" x="832.74" y="52.442">Nombre: "Departamentos"</text></g><g class="entity" data-entity="vis1" data-source-line="17" data-uid="ent0006" id="entity_vis1"><rect fill="#F1F1F1" height="44.5938" rx="2.5" ry="2.5" style="stroke:#181818;stroke-width:0.5;" width="266.8027" x="544.91" y="388.08"/><text fill="#000000" font-family="sans-serif" font-size="14" lengthAdjust="spacing" textLength="83.2822" x="636.6703" y="403.0751">Vista1:Vista</text><line style="stroke:#181818;stroke-width:0.5;" x1="545.91" x2="810.7127" y1="408.3769" y2="408.3769"/><text fill="#000000" font-family="sans-serif" font-size="14" lengthAdjust="spacing" textLength="254.8027" x="550.91" y="425.372">Nombre: "Vista_Empleados_Activos"</text></g><g class="entity" data-entity="atr1" data-source-line="21" data-uid="ent0007" id="entity_atr1"><rect fill="#F1F1F1" height="44.5938" rx="2.5" ry="2.5" style="stroke:#181818;stroke-width:0.5;" width="179.4258" x="358.59" y="655.71"/><text fill="#000000" font-family="sans-serif" font-size="14" lengthAdjust="spacing" textLength="126.6768" x="384.9645" y="670.7051">Atributo1:Atributo</text><line style="stroke:#181818;stroke-width:0.5;" x1="359.59" x2="537.0158" y1="676.0069" y2="676.0069"/><text fill="#000000" font-family="sans-serif" font-size="14" lengthAdjust="spacing" textLength="167.4258" x="364.59" y="693.002">Nombre: "id_empleado"</text></g><g class="entity" data-entity="atr2" data-source-line="25" data-uid="ent0008" id="entity_atr2"><rect fill="#F1F1F1" height="44.5938" rx="2.5" ry="2.5" style="stroke:#181818;stroke-width:0.5;" width="144.3096" x="179.15" y="655.71"/><text fill="#000000" font-family="sans-serif" font-size="14" lengthAdjust="spacing" textLength="126.6768" x="187.9664" y="670.7051">Atributo2:Atributo</text><line style="stroke:#181818;stroke-width:0.5;" x1="180.15" x2="322.4596" y1="676.0069" y2="676.0069"/><text fill="#000000" font-family="sans-serif" font-size="14" lengthAdjust="spacing" textLength="132.3096" x="185.15" y="693.002">Nombre: "nombre"</text></g><g class="entity" data-entity="atr3" data-source-line="29" data-uid="ent0009" id="entity_atr3"><rect fill="#F1F1F1" height="44.5938" rx="2.5" ry="2.5" style="stroke:#181818;stroke-width:0.5;" width="209.7227" x="573.45" y="655.71"/><text fill="#000000" font-family="sans-serif" font-size="14" lengthAdjust="spacing" textLength="126.6768" x="614.9729" y="670.7051">Atributo3:Atributo</text><line style="stroke:#181818;stroke-width:0.5;" x1="574.45" x2="782.1727" y1="676.0069" y2="676.0069"/><text fill="#000000" font-family="sans-serif" font-size="14" lengthAdjust="spacing" textLength="197.7227" x="579.45" y="693.002">Nombre: "id_departamento"</text></g><g class="entity" data-entity="tipo1" data-source-line="33" data-uid="ent0010" id="entity_tipo1"><rect fill="#F1F1F1" height="44.5938" rx="2.5" ry="2.5" style="stroke:#181818;stroke-width:0.5;" width="173.6328" x="428.49" y="793.6"/><text fill="#000000" font-family="sans-serif" font-size="14" lengthAdjust="spacing" textLength="159.6328" x="435.49" y="808.5951">TipoDato1:TipoDeDato</text><line style="stroke:#181818;stroke-width:0.5;" x1="429.49" x2="601.1228" y1="813.8969" y2="813.8969"/><text fill="#000000" font-family="sans-serif" font-size="14" lengthAdjust="spacing" textLength="113.3604" x="434.49" y="830.892">Tipo: "INTEGER"</text></g><g class="entity" data-entity="tipo2" data-source-line="37" data-uid="ent0011" id="entity_tipo2"><rect fill="#F1F1F1" height="44.5938" rx="2.5" ry="2.5" style="stroke:#181818;stroke-width:0.5;" width="173.6328" x="164.49" y="793.6"/><text fill="#000000" font-family="sans-serif" font-size="14" lengthAdjust="spacing" textLength="159.6328" x="171.49" y="808.5951">TipoDato2:TipoDeDato</text><line style="stroke:#181818;stroke-width:0.5;" x1="165.49" x2="337.1228" y1="813.8969" y2="813.8969"/><text fill="#000000" font-family="sans-serif" font-size="14" lengthAdjust="spacing" textLength="158.0742" x="170.49" y="830.892">Tipo: "VARCHAR(100)"</text></g><g class="entity" data-entity="pk1" data-source-line="41" data-uid="ent0012" id="entity_pk1"><rect fill="#F1F1F1" height="60.8906" rx="2.5" ry="2.5" style="stroke:#181818;stroke-width:0.5;" width="191.7988" x="868.41" y="785.46"/><text fill="#000000" font-family="sans-serif" font-size="14" lengthAdjust="spacing" textLength="174.4736" x="877.0726" y="800.4551">PrimaryKey1:PrimaryKey</text><line style="stroke:#181818;stroke-width:0.5;" x1="869.41" x2="1059.2088" y1="805.7569" y2="805.7569"/><text fill="#000000" font-family="sans-serif" font-size="14" lengthAdjust="spacing" textLength="179.7988" x="874.41" y="822.752">Nombre: "PK_Empleados"</text><text fill="#000000" font-family="sans-serif" font-size="14" lengthAdjust="spacing" textLength="160.9385" x="874.41" y="839.0489">Campo: "id_empleado"</text></g><g class="entity" data-entity="fk1" data-source-line="46" data-uid="ent0013" id="entity_fk1"><rect fill="#F1F1F1" height="60.8906" rx="2.5" ry="2.5" style="stroke:#181818;stroke-width:0.5;" width="292.9775" x="817.82" y="647.56"/><text fill="#000000" font-family="sans-serif" font-size="14" lengthAdjust="spacing" textLength="171.0557" x="878.7809" y="662.5551">ForeignKey1:ForeignKey</text><line style="stroke:#181818;stroke-width:0.5;" x1="818.82" x2="1109.7975" y1="667.8569" y2="667.8569"/><text fill="#000000" font-family="sans-serif" font-size="14" lengthAdjust="spacing" textLength="280.9775" x="823.82" y="684.852">Nombre: "FK_Empleado_Departamento"</text><text fill="#000000" font-family="sans-serif" font-size="14" lengthAdjust="spacing" textLength="191.2354" x="823.82" y="701.1489">Campo: "id_departamento"</text></g><g class="entity" data-entity="cons1" data-source-line="51" data-uid="ent0014" id="entity_cons1"><rect fill="#F1F1F1" height="60.8906" rx="2.5" ry="2.5" style="stroke:#181818;stroke-width:0.5;" width="241.0449" x="854.79" y="509.67"/><text fill="#000000" font-family="sans-serif" font-size="14" lengthAdjust="spacing" textLength="147.8135" x="901.4057" y="524.6651">Constrain1:Constrain</text><line style="stroke:#181818;stroke-width:0.5;" x1="855.79" x2="1094.8349" y1="529.9669" y2="529.9669"/><text fill="#000000" font-family="sans-serif" font-size="14" lengthAdjust="spacing" textLength="229.0449" x="860.79" y="546.962">Nombre: "CHK_Nombre_NotNull"</text><text fill="#000000" font-family="sans-serif" font-size="14" lengthAdjust="spacing" textLength="122.7529" x="860.79" y="563.2589">Tipo: "NOT NULL"</text></g><g class="entity" data-entity="trig1" data-source-line="56" data-uid="ent0015" id="entity_trig1"><rect fill="#F1F1F1" height="60.8906" rx="2.5" ry="2.5" style="stroke:#181818;stroke-width:0.5;" width="273.8096" x="1145.4" y="647.56"/><text fill="#000000" font-family="sans-serif" font-size="14" lengthAdjust="spacing" textLength="114.3037" x="1225.1529" y="662.5551">Trigger1:Trigger</text><line style="stroke:#181818;stroke-width:0.5;" x1="1146.4" x2="1418.2096" y1="667.8569" y2="667.8569"/><text fill="#000000" font-family="sans-serif" font-size="14" lengthAdjust="spacing" textLength="261.8096" x="1151.4" y="684.852">Nombre: "TRG_Auditoria_Empleados"</text><text fill="#000000" font-family="sans-serif" font-size="14" lengthAdjust="spacing" textLength="170.5361" x="1151.4" y="701.1489">Evento: "AFTER INSERT"</text></g><g class="entity" data-entity="acc1" data-source-line="61" data-uid="ent0016" id="entity_acc1"><rect fill="#F1F1F1" height="44.5938" rx="2.5" ry="2.5" style="stroke:#181818;stroke-width:0.5;" width="215.2188" x="856.7" y="923.35"/><text fill="#000000" font-family="sans-serif" font-size="14" lengthAdjust="spacing" textLength="106.2236" x="911.1976" y="938.3451">Accion1:Accion</text><line style="stroke:#181818;stroke-width:0.5;" x1="857.7" x2="1070.9188" y1="943.6469" y2="943.6469"/><text fill="#000000" font-family="sans-serif" font-size="14" lengthAdjust="spacing" textLength="203.2188" x="862.7" y="960.642">Tipo: "ON DELETE CASCADE"</text></g><g class="entity" data-entity="user1" data-source-line="65" data-uid="ent0017" id="entity_user1"><rect fill="#F1F1F1" height="60.8906" rx="2.5" ry="2.5" style="stroke:#181818;stroke-width:0.5;" width="226.4844" x="565.07" y="7"/><text fill="#000000" font-family="sans-serif" font-size="14" lengthAdjust="spacing" textLength="77.4443" x="639.59" y="21.9951">User1:User</text><line style="stroke:#181818;stroke-width:0.5;" x1="566.07" x2="790.5544" y1="27.2969" y2="27.2969"/><text fill="#000000" font-family="sans-serif" font-size="14" lengthAdjust="spacing" textLength="159.3799" x="571.07" y="44.292">Nombre: "admin_user"</text><text fill="#000000" font-family="sans-serif" font-size="14" lengthAdjust="spacing" textLength="214.4844" x="571.07" y="60.5889">Email: "admin@empresa.com"</text></g><g class="entity" data-entity="rol1" data-source-line="70" data-uid="ent0018" id="entity_rol1"><rect fill="#F1F1F1" height="44.5938" rx="2.5" ry="2.5" style="stroke:#181818;stroke-width:0.5;" width="189.0576" x="583.78" y="144.89"/><text fill="#000000" font-family="sans-serif" font-size="14" lengthAdjust="spacing" textLength="57.9893" x="649.3142" y="159.8851">Rol1:Rol</text><line style="stroke:#181818;stroke-width:0.5;" x1="584.78" x2="771.8376" y1="165.1869" y2="165.1869"/><text fill="#000000" font-family="sans-serif" font-size="14" lengthAdjust="spacing" textLength="177.0576" x="589.78" y="182.182">Nombre: "Administrador"</text></g><g class="entity" data-entity="perm1" data-source-line="74" data-uid="ent0019" id="entity_perm1"><rect fill="#F1F1F1" height="44.5938" rx="2.5" ry="2.5" style="stroke:#181818;stroke-width:0.5;" width="241.5029" x="557.56" y="266.49"/><text fill="#000000" font-family="sans-serif" font-size="14" lengthAdjust="spacing" textLength="126.0205" x="615.3012" y="281.4851">Permiso1:Permiso</text><line style="stroke:#181818;stroke-width:0.5;" x1="558.56" x2="798.0629" y1="286.7869" y2="286.7869"/><text fill="#000000" font-family="sans-serif" font-size="14" lengthAdjust="spacing" textLength="229.5029" x="563.56" y="303.782">Tipo: "SELECT, INSERT, UPDATE"</text></g><g class="entity" data-entity="op1" data-source-line="78" data-uid="ent0020" id="entity_op1"><rect fill="#F1F1F1" height="44.5938" rx="2.5" ry="2.5" style="stroke:#181818;stroke-width:0.5;" width="247.7139" x="878.45" y="266.49"/><text fill="#000000" font-family="sans-serif" font-size="14" lengthAdjust="spacing" textLength="233.7139" x="885.45" y="281.4851">OpPermiso1:OperacionesPermiso</text><line style="stroke:#181818;stroke-width:0.5;" x1="879.45" x2="1125.1639" y1="286.7869" y2="286.7869"/><text fill="#000000" font-family="sans-serif" font-size="14" lengthAdjust="spacing" textLength="146.6309" x="884.45" y="303.782">Operacion: "SELECT"</text></g><!--link bd1 to esq1--><g class="link" data-entity-1="bd1" data-entity-2="esq1" data-source-line="83" data-uid="lnk21" id="link_bd1_esq1"><path codeLine="83" d="M203.95,410.38 C234.09,410.38 260.82,410.38 289.46,410.38" fill="none" id="bd1-to-esq1" style="stroke:#181818;stroke-width:1;"/><polygon fill="#181818" points="295.46,410.38,286.46,406.38,290.46,410.38,286.46,414.38,295.46,410.38" style="stroke:#181818;stroke-width:1;"/><text fill="#000000" font-family="sans-serif" font-size="13" lengthAdjust="spacing" textLength="56.2847" x="221.69" y="403.4469">contiene</text></g><!--link esq1 to vis1--><g class="link" data-entity-1="esq1" data-entity-2="vis1" data-source-line="84" data-uid="lnk22" id="link_esq1_vis1"><path codeLine="84" d="M452.99,410.38 C480.96,410.38 507.29,410.38 538.57,410.38" fill="none" id="esq1-to-vis1" style="stroke:#181818;stroke-width:1;"/><polygon fill="#181818" points="544.57,410.38,535.57,406.38,539.57,410.38,535.57,414.38,544.57,410.38" style="stroke:#181818;stroke-width:1;"/><text fill="#000000" font-family="sans-serif" font-size="13" lengthAdjust="spacing" textLength="56.2847" x="470.88" y="403.4469">contiene</text></g><!--link vis1 to tab1--><g class="link" data-entity-1="vis1" data-entity-2="tab1" data-source-line="85" data-uid="lnk23" id="link_vis1_tab1"><path codeLine="85" d="M678.31,433.05 C678.31,456.54 678.31,487.81 678.31,511.34" fill="none" id="vis1-to-tab1" style="stroke:#181818;stroke-width:1;"/><polygon fill="#181818" points="678.31,517.34,682.31,508.34,678.31,512.34,674.31,508.34,678.31,517.34" style="stroke:#181818;stroke-width:1;"/><text fill="#000000" font-family="sans-serif" font-size="13" lengthAdjust="spacing" textLength="67.5454" x="679.31" y="475.7369">basada en</text></g><!--link tab1 to atr1--><g class="link" data-entity-1="tab1" data-entity-2="atr1" data-source-line="86" data-uid="lnk24" id="link_tab1_atr1"><path codeLine="86" d="M641.61,562.8 C598.61,588.2 532.976,626.9883 490.046,652.3483" fill="none" id="tab1-to-atr1" style="stroke:#181818;stroke-width:1;"/><polygon fill="#181818" points="484.88,655.4,494.6634,654.2664,489.185,652.8569,490.5945,647.3785,484.88,655.4" style="stroke:#181818;stroke-width:1;"/><text fill="#000000" font-family="sans-serif" font-size="13" lengthAdjust="spacing" textLength="56.2847" x="578.31" y="613.6269">contiene</text></g><!--link tab1 to atr2--><g class="link" data-entity-1="tab1" data-entity-2="atr2" data-source-line="87" data-uid="lnk25" id="link_tab1_atr2"><path codeLine="87" d="M606.34,562.8 C569.75,573.92 524.6,587.78 484.31,600.56 C427.5,618.59 368.8344,637.8696 322.1744,653.3596" fill="none" id="tab1-to-atr2" style="stroke:#181818;stroke-width:1;"/><polygon fill="#181818" points="316.48,655.25,326.2819,656.2107,321.2253,653.6747,323.7613,648.6181,316.48,655.25" style="stroke:#181818;stroke-width:1;"/><text fill="#000000" font-family="sans-serif" font-size="13" lengthAdjust="spacing" textLength="56.2847" x="485.31" y="613.6269">contiene</text></g><!--link tab1 to atr3--><g class="link" data-entity-1="tab1" data-entity-2="atr3" data-source-line="88" data-uid="lnk26" id="link_tab1_atr3"><path codeLine="88" d="M678.31,562.65 C678.31,588.1 678.31,624.18 678.31,649.58" fill="none" id="tab1-to-atr3" style="stroke:#181818;stroke-width:1;"/><polygon fill="#181818" points="678.31,655.58,682.31,646.58,678.31,650.58,674.31,646.58,678.31,655.58" style="stroke:#181818;stroke-width:1;"/><text fill="#000000" font-family="sans-serif" font-size="13" lengthAdjust="spacing" textLength="56.2847" x="679.31" y="613.6269">contiene</text></g><!--link tab1 to cons1--><g class="link" data-entity-1="tab1" data-entity-2="cons1" data-source-line="89" data-uid="lnk27" id="link_tab1_cons1"><path codeLine="89" d="M762.22,540.12 C790.87,540.12 817.5,540.12 848.47,540.12" fill="none" id="tab1-to-cons1" style="stroke:#181818;stroke-width:1;"/><polygon fill="#181818" points="854.47,540.12,845.47,536.12,849.47,540.12,845.47,544.12,854.47,540.12" style="stroke:#181818;stroke-width:1;"/><text fill="#000000" font-family="sans-serif" font-size="13" lengthAdjust="spacing" textLength="56.2847" x="780.34" y="533.1869">contiene</text></g><!--link tab1 to fk1--><g class="link" data-entity-1="tab1" data-entity-2="fk1" data-source-line="90" data-uid="lnk28" id="link_tab1_fk1"><path codeLine="90" d="M723.94,562.8 C771.96,585.62 842.4606,619.1151 896.1106,644.6051" fill="none" id="tab1-to-fk1" style="stroke:#181818;stroke-width:1;"/><polygon fill="#181818" points="901.53,647.18,895.1174,639.7048,897.0138,645.0343,891.6843,646.9307,901.53,647.18" style="stroke:#181818;stroke-width:1;"/><text fill="#000000" font-family="sans-serif" font-size="13" lengthAdjust="spacing" textLength="128.1846" x="840.31" y="613.6269">se realiza mediante</text></g><!--link tab1 to trig1--><g class="link" data-entity-1="tab1" data-entity-2="trig1" data-source-line="91" data-uid="lnk29" id="link_tab1_trig1"><path codeLine="91" d="M762.31,556.67 C822.37,568.07 905.01,584.33 977.31,600.56 C1040.82,614.83 1105.5387,630.8971 1162.7587,645.5971" fill="none" id="tab1-to-trig1" style="stroke:#181818;stroke-width:1;"/><polygon fill="#181818" points="1168.57,647.09,1160.8484,640.9764,1163.7273,645.8459,1158.8578,648.7248,1168.57,647.09" style="stroke:#181818;stroke-width:1;"/><text fill="#000000" font-family="sans-serif" font-size="13" lengthAdjust="spacing" textLength="22.9785" x="1046.31" y="613.6269">usa</text></g><!--link atr1 to tipo1--><g class="link" data-entity-1="atr1" data-entity-2="tipo1" data-source-line="92" data-uid="lnk30" id="link_atr1_tipo1"><path codeLine="92" d="M458.92,700.54 C471.47,725.99 489.5673,762.6883 502.0873,788.0883" fill="none" id="atr1-to-tipo1" style="stroke:#181818;stroke-width:1;"/><polygon fill="#181818" points="504.74,793.47,504.3487,783.6289,502.5294,788.9852,497.1731,787.1659,504.74,793.47" style="stroke:#181818;stroke-width:1;"/><text fill="#000000" font-family="sans-serif" font-size="13" lengthAdjust="spacing" textLength="56.2847" x="487.31" y="751.5269">contiene</text></g><!--link atr2 to tipo2--><g class="link" data-entity-1="atr2" data-entity-2="tipo2" data-source-line="93" data-uid="lnk31" id="link_atr2_tipo2"><path codeLine="93" d="M251.31,700.54 C251.31,725.99 251.31,762.07 251.31,787.47" fill="none" id="atr2-to-tipo2" style="stroke:#181818;stroke-width:1;"/><polygon fill="#181818" points="251.31,793.47,255.31,784.47,251.31,788.47,247.31,784.47,251.31,793.47" style="stroke:#181818;stroke-width:1;"/><text fill="#000000" font-family="sans-serif" font-size="13" lengthAdjust="spacing" textLength="56.2847" x="252.31" y="751.5269">contiene</text></g><!--link atr3 to tipo1--><g class="link" data-entity-1="atr3" data-entity-2="tipo1" data-source-line="94" data-uid="lnk32" id="link_atr3_tipo1"><path codeLine="94" d="M652.48,700.54 C622.05,725.91 576.3891,763.9786 545.8891,789.3986" fill="none" id="atr3-to-tipo1" style="stroke:#181818;stroke-width:1;"/><polygon fill="#181818" points="541.28,793.24,550.7546,790.5506,545.1209,790.0388,545.6327,784.4052,541.28,793.24" style="stroke:#181818;stroke-width:1;"/><text fill="#000000" font-family="sans-serif" font-size="13" lengthAdjust="spacing" textLength="56.2847" x="608.31" y="751.5269">contiene</text></g><!--link fk1 to pk1--><g class="link" data-entity-1="fk1" data-entity-2="pk1" data-source-line="95" data-uid="lnk33" id="link_fk1_pk1"><path codeLine="95" d="M964.31,708.83 C964.31,731.49 964.31,756.51 964.31,779.15" fill="none" id="fk1-to-pk1" style="stroke:#181818;stroke-width:1;"/><polygon fill="#181818" points="964.31,785.15,968.31,776.15,964.31,780.15,960.31,776.15,964.31,785.15" style="stroke:#181818;stroke-width:1;"/><text fill="#000000" font-family="sans-serif" font-size="13" lengthAdjust="spacing" textLength="32.9443" x="965.31" y="751.5269">tiene</text></g><!--link pk1 to acc1--><g class="link" data-entity-1="pk1" data-entity-2="acc1" data-source-line="96" data-uid="lnk34" id="link_pk1_acc1"><path codeLine="96" d="M964.31,846.53 C964.31,869.97 964.31,896.14 964.31,917.15" fill="none" id="pk1-to-acc1" style="stroke:#181818;stroke-width:1;"/><polygon fill="#181818" points="964.31,923.15,968.31,914.15,964.31,918.15,960.31,914.15,964.31,923.15" style="stroke:#181818;stroke-width:1;"/><text fill="#000000" font-family="sans-serif" font-size="13" lengthAdjust="spacing" textLength="56.2847" x="965.31" y="889.4169">contiene</text></g><!--link user1 to rol1--><g class="link" data-entity-1="user1" data-entity-2="rol1" data-source-line="97" data-uid="lnk35" id="link_user1_rol1"><path codeLine="97" d="M678.31,68.08 C678.31,91.51 678.31,117.69 678.31,138.7" fill="none" id="user1-to-rol1" style="stroke:#181818;stroke-width:1;"/><polygon fill="#181818" points="678.31,144.7,682.31,135.7,678.31,139.7,674.31,135.7,678.31,144.7" style="stroke:#181818;stroke-width:1;"/><text fill="#000000" font-family="sans-serif" font-size="13" lengthAdjust="spacing" textLength="32.9443" x="679.31" y="110.9569">tiene</text></g><!--link rol1 to perm1--><g class="link" data-entity-1="rol1" data-entity-2="perm1" data-source-line="98" data-uid="lnk36" id="link_rol1_perm1"><path codeLine="98" d="M678.31,189.85 C678.31,211.52 678.31,238.67 678.31,260.29" fill="none" id="rol1-to-perm1" style="stroke:#181818;stroke-width:1;"/><polygon fill="#181818" points="678.31,266.29,682.31,257.29,678.31,261.29,674.31,257.29,678.31,266.29" style="stroke:#181818;stroke-width:1;"/><text fill="#000000" font-family="sans-serif" font-size="13" lengthAdjust="spacing" textLength="32.9443" x="679.31" y="232.5569">tiene</text></g><!--link perm1 to vis1--><g class="link" data-entity-1="perm1" data-entity-2="vis1" data-source-line="99" data-uid="lnk37" id="link_perm1_vis1"><path codeLine="99" d="M678.31,311.44 C678.31,333.12 678.31,360.26 678.31,381.88" fill="none" id="perm1-to-vis1" style="stroke:#181818;stroke-width:1;"/><polygon fill="#181818" points="678.31,387.88,682.31,378.88,678.31,382.88,674.31,378.88,678.31,387.88" style="stroke:#181818;stroke-width:1;"/><text fill="#000000" font-family="sans-serif" font-size="13" lengthAdjust="spacing" textLength="38.9619" x="679.31" y="354.1469">utiliza</text></g><!--link perm1 to op1--><g class="link" data-entity-1="perm1" data-entity-2="op1" data-source-line="100" data-uid="lnk38" id="link_perm1_op1"><path codeLine="100" d="M799.41,288.78 C825.12,288.78 846.29,288.78 872.11,288.78" fill="none" id="perm1-to-op1" style="stroke:#181818;stroke-width:1;"/><polygon fill="#181818" points="878.11,288.78,869.11,284.78,873.11,288.78,869.11,292.78,878.11,288.78" style="stroke:#181818;stroke-width:1;"/><text fill="#000000" font-family="sans-serif" font-size="13" lengthAdjust="spacing" textLength="43.3228" x="817.25" y="281.8469">realiza</text></g><!--SRC=[TLLBRjim4Dth54GsQO6uYEIT5aLLIVd0WHp8IhR2I68DflgPf0AaHG_Ji_HY9OUsBChsHfpXc_TcE1pJrn63BOS6I4N9kdYZiXDaGJPCI6esluEWUer0GOxJgPXIaYkzZLkkZwPnhWW8KbGk-UtyESR6OZSeDTVV6nX5nMuMba5Hgo1SC4H2eKC8IRgcuDHNIarVKwXKeXEYPnCzcnZH7hY4XhPoHdvLHrLPSK7oEnEph8ZbO-uyA2Lxdya4ahDYa9th7omK0ybdOgpAwLxfh81t8Z0xIel6MUxoXBiyILvDEc5taVMTlaHr0zh22pNTLAuvX0QKocEInVTnUfRjdMDxK_Pha8OFGVh9lRtzR4aySzO0_rZH3zS_sYZI_vnryNcLJsQ1a10Q5B_KtRkEKxPjKVjee_QFkVRTKJkFh6vPUIusCknQ8JcmrlL74pELoflb2XzMkN7K8fEXhg-EdKhM6KbUdfxiHdEstLAkRiaOfidAdYbdwNqU31MJ7MTWDoj-rpMhcE0kYrFoc6pYDBC7gYnPf-etgnccihI6O9sGA7wAivY4mIOCejWIU16wHFr5yg1Tkpwe6jRc6i2I6c3rOVURka9E1NmfkyPIJRlQzTK7DRboRCb0avbkUDLnUxGeRvXGexqtp50fsphIHfqdp6xs3RaXByzHaDddMlUZr5hnGRU7YgbgrnlD4Hw5KUYQfBJUqyWRvV_-yjt0IX2EVZONVF7Ll8o-dXR9Q4iTz171fsc2eB-e589FfKyA4501eQs36mZX4pGXMOXt4LcU8he4CyDdIVg7v1FrRy4frEmNa8PM35evZJ63wgk100SBCxluman4iR8HycRGyW9B5u18ZvMOpVwmYGCyYJOpYH2Eqe60Zf710Hc5q4DWVm-3PFgS1qItHz- -VsZ0Vm00]--></g></svg>